<svg width="40" height="40" viewBox="0 0 40 40" fill="none" xmlns="http://www.w3.org/2000/svg">
<path d="M17.5 23.75L23.9875 20L17.5 16.25V23.75ZM31.95 13.9625C32.1125 14.55 32.225 15.3375 32.3 16.3375C32.3875 17.3375 32.425 18.2 32.425 18.95L32.5 20C32.5 22.7375 32.3 24.75 31.95 26.0375C31.6375 27.1625 30.9125 27.8875 29.7875 28.2C29.2 28.3625 28.125 28.475 26.475 28.55C24.85 28.6375 23.3625 28.675 21.9875 28.675L20 28.75C14.7625 28.75 11.5 28.55 10.2125 28.2C9.0875 27.8875 8.3625 27.1625 8.05 26.0375C7.8875 25.45 7.775 24.6625 7.7 23.6625C7.6125 22.6625 7.575 21.8 7.575 21.05L7.5 20C7.5 17.2625 7.7 15.25 8.05 13.9625C8.3625 12.8375 9.0875 12.1125 10.2125 11.8C10.8 11.6375 11.875 11.525 13.525 11.45C15.15 11.3625 16.6375 11.325 18.0125 11.325L20 11.25C25.2375 11.25 28.5 11.45 29.7875 11.8C30.9125 12.1125 31.6375 12.8375 31.95 13.9625Z" fill="black"/>
</svg>
